<mxfile host="app.diagrams.net" agent="Mozilla/5.0 (Windows NT 10.0; Win64; x64) AppleWebKit/537.36 (KHTML, like Gecko) Chrome/134.0.0.0 Safari/537.36" version="26.1.1">
  <diagram name="Page-1" id="uqGoRRFVobq48VPTha0x">
    <mxGraphModel dx="989" dy="541" grid="1" gridSize="10" guides="1" tooltips="1" connect="1" arrows="1" fold="1" page="1" pageScale="1" pageWidth="850" pageHeight="1100" math="0" shadow="0">
      <root>
        <mxCell id="0" />
        <mxCell id="1" parent="0" />
        <mxCell id="KrNsN0gfztRpw3SpxQ73-5" style="edgeStyle=orthogonalEdgeStyle;rounded=0;orthogonalLoop=1;jettySize=auto;html=1;exitX=0.5;exitY=1;exitDx=0;exitDy=0;exitPerimeter=0;entryX=0.5;entryY=0;entryDx=0;entryDy=0;" edge="1" parent="1" source="KrNsN0gfztRpw3SpxQ73-1" target="KrNsN0gfztRpw3SpxQ73-2">
          <mxGeometry relative="1" as="geometry" />
        </mxCell>
        <mxCell id="KrNsN0gfztRpw3SpxQ73-1" value="Admin" style="strokeWidth=2;html=1;shape=mxgraph.flowchart.start_1;whiteSpace=wrap;fillColor=#d5e8d4;strokeColor=#82b366;" vertex="1" parent="1">
          <mxGeometry x="350" y="20" width="100" height="60" as="geometry" />
        </mxCell>
        <mxCell id="KrNsN0gfztRpw3SpxQ73-6" style="edgeStyle=orthogonalEdgeStyle;rounded=0;orthogonalLoop=1;jettySize=auto;html=1;exitX=1;exitY=0.5;exitDx=0;exitDy=0;shape=link;" edge="1" parent="1" source="KrNsN0gfztRpw3SpxQ73-2" target="KrNsN0gfztRpw3SpxQ73-3">
          <mxGeometry relative="1" as="geometry" />
        </mxCell>
        <mxCell id="KrNsN0gfztRpw3SpxQ73-2" value="Giving the default account to the admin, only contains(username &amp;amp; password)" style="rounded=1;whiteSpace=wrap;html=1;absoluteArcSize=1;arcSize=14;strokeWidth=2;fillColor=#dae8fc;strokeColor=#6c8ebf;" vertex="1" parent="1">
          <mxGeometry x="305" y="120" width="190" height="70" as="geometry" />
        </mxCell>
        <mxCell id="KrNsN0gfztRpw3SpxQ73-3" value="GUI ADMIN&lt;br&gt;&lt;div&gt;&lt;br&gt;&lt;/div&gt;&lt;div&gt;modules&lt;/div&gt;&lt;div&gt;&lt;br&gt;&lt;/div&gt;&lt;div&gt;- change password&lt;/div&gt;&lt;div&gt;- total no. of scholars&lt;/div&gt;&lt;div&gt;- available slots&lt;/div&gt;&lt;div&gt;- total no. of gratis duty hours&lt;/div&gt;&lt;div&gt;- open dt &amp;amp; end dt of application in scholars&lt;/div&gt;&lt;div&gt;-create subAccounts&lt;/div&gt;&lt;div&gt;for Monitoring, every dept &amp;amp; church, validatiing of req., recorder(Access level and role based&lt;/div&gt;" style="rounded=1;whiteSpace=wrap;html=1;absoluteArcSize=1;arcSize=14;strokeWidth=2;fillColor=#e1d5e7;strokeColor=#9673a6;" vertex="1" parent="1">
          <mxGeometry x="580" y="20" width="300" height="240" as="geometry" />
        </mxCell>
      </root>
    </mxGraphModel>
  </diagram>
</mxfile>
